<svg width="16" height="16" viewBox="0 0 16 16" fill="none" xmlns="http://www.w3.org/2000/svg">
<path fill-rule="evenodd" clip-rule="evenodd" d="M4.22 6.22003C4.36062 6.07958 4.55125 6.00069 4.75 6.00069C4.94875 6.00069 5.13937 6.07958 5.28 6.22003L8 8.94003L10.72 6.22003C10.7887 6.14634 10.8715 6.08724 10.9635 6.04625C11.0555 6.00526 11.1548 5.98322 11.2555 5.98144C11.3562 5.97966 11.4562 5.99819 11.5496 6.03591C11.643 6.07363 11.7278 6.12977 11.799 6.20099C11.8703 6.27221 11.9264 6.35705 11.9641 6.45043C12.0018 6.54382 12.0204 6.64385 12.0186 6.74455C12.0168 6.84526 11.9948 6.94457 11.9538 7.03657C11.9128 7.12857 11.8537 7.21137 11.78 7.28003L8.53 10.53C8.38937 10.6705 8.19875 10.7494 8 10.7494C7.80125 10.7494 7.61062 10.6705 7.47 10.53L4.22 7.28003C4.07955 7.13941 4.00066 6.94878 4.00066 6.75003C4.00066 6.55128 4.07955 6.36066 4.22 6.22003Z" fill="white" fill-opacity="0.6"/>
</svg>
