<svg width="75" height="76" viewBox="0 0 75 76" fill="none" xmlns="http://www.w3.org/2000/svg">
<path d="M69.3838 31.2617C67.333 29.7412 64.8135 28.625 62.1533 28.0229C61.7165 27.9247 61.3167 27.7042 61.0005 27.3872C60.6844 27.0703 60.4649 26.6699 60.3677 26.2329C59.2251 21.1426 56.7656 16.7773 53.1504 13.4697C48.9478 9.61865 43.3901 7.50049 37.5 7.50049C32.3218 7.50049 27.5391 9.12353 23.6763 12.1953C21.0583 14.2805 18.9511 16.9358 17.5151 19.959C17.3595 20.2898 17.1286 20.5795 16.8409 20.8051C16.5532 21.0308 16.2168 21.1859 15.8584 21.2583C11.9399 22.0493 8.40234 23.7295 5.70117 26.1099C1.97168 29.4058 0 33.7871 0 38.7896C0 43.8462 2.12256 48.4575 5.9751 51.7915C9.65479 54.9687 14.6089 56.7192 19.9219 56.7192H35.1562V34.2529L29.7817 39.6274C29.5574 39.8518 29.2898 40.0283 28.9952 40.1461C28.7006 40.264 28.3851 40.3208 28.0679 40.3131C27.7507 40.3055 27.4383 40.2335 27.1498 40.1015C26.8612 39.9695 26.6024 39.7803 26.3892 39.5454C25.5396 38.6123 25.6216 37.1577 26.5137 36.2656L35.8433 26.9375C36.2828 26.4983 36.8787 26.2516 37.5 26.2516C38.1213 26.2516 38.7172 26.4983 39.1567 26.9375L48.4863 36.2627C49.4062 37.1841 49.459 38.6943 48.5435 39.6186C48.3263 39.838 48.0679 40.0123 47.7831 40.1315C47.4984 40.2508 47.1929 40.3126 46.8842 40.3134C46.5754 40.3142 46.2696 40.254 45.9842 40.1363C45.6989 40.0186 45.4395 39.8457 45.2212 39.6274L39.8438 34.2529V56.7192H58.0078C62.5986 56.7192 66.7837 55.4302 69.7925 53.0908C73.1997 50.4394 75 46.6455 75 42.1294C75 37.7437 73.0576 33.9834 69.3838 31.2617ZM35.1562 66.1558C35.1562 66.7774 35.4032 67.3735 35.8427 67.813C36.2823 68.2526 36.8784 68.4995 37.5 68.4995C38.1216 68.4995 38.7177 68.2526 39.1573 67.813C39.5968 67.3735 39.8438 66.7774 39.8438 66.1558V56.7192H35.1562V66.1558Z" fill="#1E40AF"/>
</svg>
