<svg width="20" height="20" viewBox="0 0 20 20" fill="none" xmlns="http://www.w3.org/2000/svg">
<path d="M6.11905 10.4167H11.4167M6.11905 12.5357H13.5357M6.11905 14.6548H9.29762M16.7143 15.7143V8.29762L11.4167 3H6.11905C5.55704 3 5.01805 3.22326 4.62065 3.62065C4.22326 4.01805 4 4.55704 4 5.11905V15.7143C4 16.2763 4.22326 16.8153 4.62065 17.2127C5.01805 17.6101 5.55704 17.8333 6.11905 17.8333H14.5952C15.1572 17.8333 15.6962 17.6101 16.0936 17.2127C16.491 16.8153 16.7143 16.2763 16.7143 15.7143Z" stroke="#F9FAFB" stroke-linecap="round" stroke-linejoin="round"/>
<path d="M11.4167 3V6.17857C11.4167 6.74058 11.6399 7.27957 12.0373 7.67696C12.4347 8.07436 12.9737 8.29762 13.5357 8.29762H16.7143" stroke="#F9FAFB" stroke-linecap="round" stroke-linejoin="round"/>
</svg>
