<svg width="16" height="16" viewBox="0 0 16 16" fill="none" xmlns="http://www.w3.org/2000/svg">
<path d="M7.45202 13.046C7.51318 13.1348 7.59502 13.2074 7.69048 13.2576C7.78594 13.3078 7.89217 13.334 8.00002 13.334C8.10787 13.334 8.2141 13.3078 8.30956 13.2576C8.40502 13.2074 8.48686 13.1348 8.54802 13.046L14.548 4.37931C14.6175 4.27935 14.6582 4.16227 14.6658 4.04078C14.6734 3.9193 14.6475 3.79806 14.591 3.69024C14.5345 3.58242 14.4496 3.49215 14.3454 3.42922C14.2412 3.36629 14.1217 3.33312 14 3.33331H2.00002C1.87858 3.33382 1.75958 3.36741 1.65581 3.43049C1.55203 3.49357 1.46742 3.58374 1.41106 3.69131C1.35471 3.79888 1.32874 3.91978 1.33596 4.041C1.34317 4.16223 1.3833 4.27919 1.45202 4.37931L7.45202 13.046Z" fill="#1F2937"/>
</svg>
