<svg width="143" height="142" viewBox="0 0 143 142" fill="none" xmlns="http://www.w3.org/2000/svg">
<g clip-path="url(#clip0_1541_177)">
<path d="M108.359 29.5926V36.2766H42.7399C42.7399 36.2766 38.3856 36.9422 38.3856 31.9223V19.5527C38.3856 19.5527 37.72 16.0305 41.9079 16.0305H62.8196L68.1723 24.9055H104.338C104.338 24.9055 108.359 25.5711 108.359 29.5926Z" fill="#EDEDED"/>
<path d="M36.2223 81.8441C35.5012 81.8441 34.2532 81.7055 33.227 80.818C32.2008 79.9305 31.7016 78.5992 31.7016 76.7965V24.2953C31.6461 23.9625 31.5075 22.5203 32.4504 21.3832C33.1715 20.4957 34.3364 20.052 35.8895 20.052H56.8012C57.0231 20.052 57.245 20.1629 57.3836 20.3848L62.5422 28.927H98.3196C98.3473 28.927 98.4028 28.927 98.4305 28.927C100.011 29.2043 103.007 30.6465 103.007 34.2797V81.1508C103.007 81.5113 102.702 81.8164 102.341 81.8164H36.7493C36.6661 81.8441 36.4719 81.8441 36.2223 81.8441ZM35.8895 21.4109C34.7524 21.4109 33.9481 21.6883 33.4766 22.243C32.8387 23.0195 33.0329 24.1289 33.0329 24.1289C33.0329 24.1566 33.0329 24.2121 33.0329 24.2398V76.7965C33.0329 78.1832 33.3934 79.2094 34.1145 79.8195C35.1407 80.707 36.6106 80.4852 36.6106 80.4852C36.6383 80.4852 36.6661 80.4852 36.7215 80.4852H101.675V34.2797C101.675 31.0625 98.7079 30.3414 98.2641 30.2582H62.154C61.9321 30.2582 61.7102 30.1473 61.5715 29.9254L56.4129 21.3832H35.8895V21.4109Z" fill="#51597D"/>
<path d="M89.7774 128.466C115.219 128.466 135.844 124.48 135.844 119.563C135.844 114.646 115.219 110.66 89.7774 110.66C64.3354 110.66 43.7106 114.646 43.7106 119.563C43.7106 124.48 64.3354 128.466 89.7774 128.466Z" fill="#F5F5F5"/>
<path d="M112.353 102.562C112.187 102.562 112.02 102.506 111.882 102.368L109.885 100.371C109.635 100.121 109.635 99.6774 109.885 99.4277C110.134 99.1781 110.578 99.1781 110.828 99.4277L112.825 101.425C113.074 101.674 113.074 102.118 112.825 102.368C112.714 102.506 112.547 102.562 112.353 102.562Z" fill="#51597D"/>
<path d="M115.709 99.8992C115.543 99.8992 115.376 99.8438 115.238 99.7051L113.241 97.7082C112.991 97.4586 112.991 97.0148 113.241 96.7652C113.49 96.5156 113.934 96.5156 114.184 96.7652L116.181 98.7621C116.43 99.0117 116.43 99.4555 116.181 99.7051C116.07 99.8438 115.875 99.8992 115.709 99.8992Z" fill="#51597D"/>
<path d="M93.6325 105.918C110.267 105.918 123.752 92.4326 123.752 75.798C123.752 59.1635 110.267 45.6785 93.6325 45.6785C76.9979 45.6785 63.5129 59.1635 63.5129 75.798C63.5129 92.4326 76.9979 105.918 93.6325 105.918Z" fill="#EDEDED"/>
<path d="M88.9454 105.918C105.58 105.918 119.065 92.4326 119.065 75.798C119.065 59.1635 105.58 45.6785 88.9454 45.6785C72.3108 45.6785 58.8258 59.1635 58.8258 75.798C58.8258 92.4326 72.3108 105.918 88.9454 105.918Z" fill="white"/>
<path d="M88.9454 106.583C71.9719 106.583 58.1602 92.7715 58.1602 75.798C58.1602 58.8246 71.9719 45.0129 88.9454 45.0129C105.919 45.0129 119.731 58.8246 119.731 75.798C119.731 92.7715 105.919 106.583 88.9454 106.583ZM88.9454 46.3441C72.693 46.3441 59.4915 59.5457 59.4915 75.798C59.4915 92.0504 72.693 105.252 88.9454 105.252C105.198 105.252 118.399 92.0504 118.399 75.798C118.399 59.5457 105.17 46.3441 88.9454 46.3441Z" fill="#51597D"/>
<path d="M88.9454 101.896C74.5512 101.896 62.8473 90.1922 62.8473 75.798C62.8473 61.4039 74.5512 49.7 88.9454 49.7C103.34 49.7 115.043 61.4039 115.043 75.798C115.043 90.1922 103.34 101.896 88.9454 101.896ZM88.9454 51.0313C75.3001 51.0313 64.1786 62.1527 64.1786 75.798C64.1786 89.4711 75.3001 100.565 88.9454 100.565C102.618 100.565 113.712 89.4434 113.712 75.798C113.712 62.125 102.591 51.0313 88.9454 51.0313Z" fill="#51597D"/>
<path d="M139.699 70.0016C138.007 70.0016 136.621 68.6149 136.621 66.9231C136.621 65.2313 138.007 63.8445 139.699 63.8445C141.391 63.8445 142.778 65.2313 142.778 66.9231C142.778 68.6149 141.391 70.0016 139.699 70.0016ZM139.699 64.6488C138.451 64.6488 137.425 65.675 137.425 66.9231C137.425 68.1711 138.451 69.1973 139.699 69.1973C140.947 69.1973 141.973 68.1711 141.973 66.9231C141.973 65.675 140.947 64.6488 139.699 64.6488Z" fill="#51597D"/>
<path d="M139.699 68.2543C140.435 68.2543 141.031 67.6583 141.031 66.923C141.031 66.1878 140.435 65.5918 139.699 65.5918C138.964 65.5918 138.368 66.1878 138.368 66.923C138.368 67.6583 138.964 68.2543 139.699 68.2543Z" fill="#EDEDED"/>
<path d="M102.313 41.1023H32.7555C32.395 41.1023 32.0622 40.8527 32.0344 40.4922C32.0067 40.1039 32.3118 39.7711 32.7 39.7711H102.313C102.618 39.7711 102.923 39.9652 102.979 40.2703C103.09 40.6863 102.757 41.1023 102.313 41.1023Z" fill="#51597D"/>
<path d="M7.26765 28.2613C6.9071 28.2613 6.60202 27.9563 6.60202 27.5957V19.5527C6.60202 19.1922 6.9071 18.8871 7.26765 18.8871C7.62819 18.8871 7.93327 19.1922 7.93327 19.5527V27.5957C7.93327 27.9563 7.62819 28.2613 7.26765 28.2613Z" fill="#51597D"/>
<path d="M11.2614 24.2399H3.21842C2.85787 24.2399 2.5528 23.9348 2.5528 23.5742C2.5528 23.2137 2.85787 22.9086 3.21842 22.9086H11.2614C11.6219 22.9086 11.927 23.2137 11.927 23.5742C11.927 23.9348 11.6497 24.2399 11.2614 24.2399Z" fill="#51597D"/>
<path d="M75.3833 73.2742C75.2169 73.2742 75.0505 73.2188 74.9118 73.0801C74.6622 72.8305 74.6622 72.3867 74.9118 72.1371L80.5973 66.4516C80.8469 66.202 81.2907 66.202 81.5403 66.4516C81.7899 66.7012 81.7899 67.1449 81.5403 67.3945L75.8548 73.0801C75.7161 73.2188 75.5497 73.2742 75.3833 73.2742Z" fill="#51597D"/>
<path d="M81.0688 73.2742C80.9024 73.2742 80.736 73.2188 80.5973 73.0801L74.9118 67.3945C74.6622 67.1449 74.6622 66.7012 74.9118 66.4516C75.1614 66.202 75.6051 66.202 75.8548 66.4516L81.5403 72.1371C81.7899 72.3867 81.7899 72.8305 81.5403 73.0801C81.4016 73.2188 81.2352 73.2742 81.0688 73.2742Z" fill="#51597D"/>
<path d="M97.4876 73.2742C97.3212 73.2742 97.1547 73.2188 97.0161 73.0801C96.7665 72.8305 96.7665 72.3867 97.0161 72.1371L102.702 66.4516C102.951 66.202 103.395 66.202 103.645 66.4516C103.894 66.7012 103.894 67.1449 103.645 67.3945L97.959 73.0801C97.8204 73.2188 97.654 73.2742 97.4876 73.2742Z" fill="#51597D"/>
<path d="M103.145 73.2742C102.979 73.2742 102.813 73.2188 102.674 73.0801L97.0161 67.3945C96.7665 67.1449 96.7665 66.7012 97.0161 66.4516C97.2657 66.202 97.7094 66.202 97.959 66.4516L103.645 72.1371C103.894 72.3867 103.894 72.8305 103.645 73.0801C103.506 73.2188 103.34 73.2742 103.145 73.2742Z" fill="#51597D"/>
<path d="M130.436 26.9301C130.075 26.9301 129.77 26.625 129.77 26.2645V14.2C129.77 13.8395 130.075 13.5344 130.436 13.5344C130.797 13.5344 131.102 13.8395 131.102 14.2V26.2645C131.102 26.625 130.824 26.9301 130.436 26.9301Z" fill="#51597D"/>
<path d="M136.482 20.884H124.418C124.057 20.884 123.752 20.5789 123.752 20.2184C123.752 19.8578 124.057 19.5527 124.418 19.5527H136.482C136.843 19.5527 137.148 19.8578 137.148 20.2184C137.148 20.5789 136.843 20.884 136.482 20.884Z" fill="#51597D"/>
<path d="M84.2583 85.8379C84.2583 85.8379 84.9239 81.8164 89.611 81.8164C89.611 81.8164 94.9637 81.8164 94.9637 85.8379" stroke="white" stroke-width="0.78125" stroke-miterlimit="10"/>
<path d="M84.9791 85.6992H84.9514C84.5354 85.727 84.2026 85.3109 84.3135 84.8949C84.6741 83.5637 85.8944 81.1508 89.8881 81.1508C91.8295 81.1508 94.603 81.7609 95.2409 85.0891C95.3241 85.4773 95.019 85.8379 94.6307 85.8379H94.603C94.2979 85.8379 94.0205 85.616 93.9928 85.3109C93.6045 82.5375 90.0823 82.5098 89.8881 82.5098C86.6987 82.5098 85.8112 84.368 85.5616 85.2555C85.4784 85.4773 85.2565 85.6715 84.9791 85.6992Z" fill="#51597D"/>
<path d="M133.32 119.563C131.185 121.698 127.746 121.698 125.61 119.563L114.156 108.109C112.02 105.973 112.02 102.534 114.156 100.398C116.291 98.2629 119.731 98.2629 121.866 100.398L133.32 111.853C135.456 113.988 135.456 117.427 133.32 119.563Z" fill="white"/>
<path d="M129.465 121.809C127.912 121.809 126.331 121.227 125.139 120.034L113.684 108.58C112.52 107.415 111.882 105.89 111.882 104.254C111.882 102.617 112.52 101.092 113.684 99.9269C116.07 97.5418 119.952 97.5418 122.338 99.9269L133.792 111.381C134.957 112.546 135.595 114.071 135.595 115.708C135.595 117.344 134.957 118.87 133.792 120.034C132.599 121.227 131.046 121.809 129.465 121.809ZM118.011 99.4832C116.791 99.4832 115.57 99.9547 114.627 100.87C113.712 101.785 113.241 102.978 113.241 104.254C113.241 105.529 113.74 106.722 114.627 107.637L126.082 119.091C127.94 120.95 130.963 120.95 132.821 119.091C133.736 118.176 134.208 116.984 134.208 115.708C134.208 114.432 133.709 113.239 132.821 112.324L121.367 100.87C120.479 99.9547 119.231 99.4832 118.011 99.4832Z" fill="#51597D"/>
<path d="M0.944195 82.7316L9.93013 99.7605C10.3184 100.509 11.2336 100.814 11.9547 100.398L24.5739 93.6312C25.295 93.243 25.5723 92.3277 25.1563 91.5789L15.1165 73.4684L1.55435 80.707C0.833258 81.0953 0.555914 82.0105 0.944195 82.7316Z" fill="#EDEDED"/>
<path d="M14.9223 98.457C14.7282 98.457 14.534 98.4293 14.3399 98.3738C13.8407 98.2074 13.3969 97.8746 13.1751 97.4031L4.85475 81.3727C4.35553 80.402 4.71607 79.2094 5.68678 78.7102L15.9485 73.2188C16.0594 73.1633 16.1981 73.1355 16.309 73.191L21.3567 74.6055C21.4954 74.6332 21.6063 74.7164 21.6618 74.8551L29.3165 88.8055C29.5661 89.277 29.6215 89.8039 29.4829 90.3309C29.3442 90.8578 28.9837 91.2738 28.5122 91.5234L15.893 98.2906C15.5602 98.3738 15.2551 98.457 14.9223 98.457ZM5.71451 80.8734L14.0348 96.9039C14.1458 97.1258 14.3676 97.3199 14.6172 97.4031C14.8669 97.4863 15.1442 97.4586 15.3661 97.3199L27.9852 90.5527C28.2071 90.4141 28.4012 90.2199 28.4567 89.9703C28.5399 89.7207 28.5122 89.4434 28.3735 89.2215L20.8297 75.4652L16.1704 74.1617L6.10279 79.5422C5.65904 79.8195 5.49264 80.402 5.71451 80.8734Z" fill="#51597D"/>
<path d="M18.084 77.7672C18.0286 77.7672 17.9731 77.7672 17.9454 77.7395C17.8067 77.7117 17.7235 77.6008 17.6403 77.4899L15.6989 73.8566C15.6157 73.6625 15.6157 73.4406 15.7544 73.302C15.893 73.1356 16.1149 73.0801 16.309 73.1633L21.6063 74.966C21.8004 75.0215 21.9391 75.1879 21.9391 75.4098C21.9669 75.6039 21.8559 75.7981 21.6895 75.8813L18.3337 77.684C18.2505 77.7395 18.1672 77.7672 18.084 77.7672ZM17.1965 74.5223L18.3059 76.5746L20.2196 75.5484L17.1965 74.5223Z" fill="#51597D"/>
<path d="M9.40318 83.8965C9.20904 83.8965 9.04263 83.7856 8.95943 83.6191C8.82076 83.3695 8.93169 83.0645 9.1813 82.9535L15.9208 79.5145C16.1704 79.4035 16.4754 79.4867 16.5864 79.7363C16.7251 79.9859 16.6141 80.291 16.3645 80.402L9.65279 83.841C9.56958 83.8688 9.48638 83.8965 9.40318 83.8965Z" fill="#51597D"/>
<path d="M12.759 90.1645C12.5649 90.1645 12.3985 90.0535 12.3153 89.8871C12.1766 89.6375 12.2876 89.3324 12.5372 89.2215L20.802 85.0059C21.0516 84.8672 21.3567 84.9781 21.4676 85.2277C21.6063 85.4774 21.4954 85.7824 21.2458 85.8934L12.9809 90.109C12.9254 90.1367 12.8422 90.1645 12.759 90.1645Z" fill="#51597D"/>
<path d="M14.3676 93.1598C14.1735 93.1598 14.0071 93.0488 13.9239 92.8824C13.7852 92.6328 13.8962 92.3277 14.1458 92.2168L22.7989 87.807C23.0485 87.6961 23.3536 87.7793 23.4645 88.0289C23.6032 88.2785 23.4922 88.5836 23.2426 88.6945L14.5895 93.1043C14.5063 93.132 14.4508 93.1598 14.3676 93.1598Z" fill="#51597D"/>
<path d="M10.8731 87.0305C10.679 87.0305 10.5126 86.9195 10.4294 86.7531C10.2907 86.5035 10.4016 86.1984 10.6512 86.0875L18.9161 81.8719C19.1657 81.7332 19.4708 81.8442 19.5817 82.0938C19.7204 82.3434 19.6094 82.6484 19.3598 82.7594L11.095 86.975C11.0395 87.0305 10.9563 87.0305 10.8731 87.0305Z" fill="#51597D"/>
</g>
<defs>
<clipPath id="clip0_1541_177">
<rect width="142" height="142" fill="white" transform="translate(0.777786)"/>
</clipPath>
</defs>
</svg>
