<svg width="21" height="20" viewBox="0 0 21 20" fill="none" xmlns="http://www.w3.org/2000/svg">
<path d="M18.1704 1.875H6.23232C6.13448 1.87492 6.03759 1.89411 5.94717 1.93147C5.85675 1.96884 5.77458 2.02364 5.70534 2.09276C5.6361 2.16189 5.58116 2.24397 5.54364 2.33432C5.50613 2.42468 5.48678 2.52154 5.48669 2.61938V5.9375L12.4048 7.96875L18.9167 5.9375V2.61938C18.9166 2.52149 18.8972 2.42458 18.8597 2.33418C18.8221 2.24378 18.7671 2.16167 18.6978 2.09254C18.6285 2.02341 18.5463 1.96862 18.4558 1.93129C18.3653 1.89396 18.2683 1.87484 18.1704 1.875Z" fill="#41A5EE"/>
<path d="M18.9167 5.9375H5.48669V10L12.4048 11.2188L18.9167 10V5.9375Z" fill="#2B7CD3"/>
<path d="M5.48669 10V14.0625L11.9979 14.875L18.9167 14.0625V10H5.48669Z" fill="#185ABD"/>
<path d="M6.23232 18.125H18.1698C18.2678 18.1252 18.3648 18.1062 18.4553 18.0689C18.5459 18.0316 18.6282 17.9768 18.6976 17.9077C18.767 17.8385 18.822 17.7564 18.8596 17.666C18.8972 17.5755 18.9166 17.4786 18.9167 17.3806V14.0625H5.48669V17.3806C5.48678 17.4785 5.50613 17.5753 5.54364 17.6657C5.58116 17.756 5.6361 17.8381 5.70534 17.9072C5.77458 17.9764 5.85675 18.0312 5.94717 18.0685C6.03759 18.1059 6.13448 18.1251 6.23232 18.125Z" fill="#103F91"/>
<path opacity="0.1" d="M10.4379 5.125H5.48669V15.2812H10.4379C10.6352 15.2803 10.8242 15.2016 10.9639 15.0623C11.1036 14.9229 11.1827 14.7342 11.1842 14.5369V5.86937C11.1827 5.67209 11.1036 5.48333 10.9639 5.34399C10.8242 5.20466 10.6352 5.12598 10.4379 5.125Z" fill="black"/>
<path opacity="0.2" d="M10.0311 5.53125H5.48669V15.6875H10.0311C10.2284 15.6865 10.4173 15.6078 10.557 15.4685C10.6967 15.3292 10.7758 15.1404 10.7773 14.9431V6.27562C10.7758 6.07834 10.6967 5.88958 10.557 5.75024C10.4173 5.61091 10.2284 5.53223 10.0311 5.53125Z" fill="black"/>
<path opacity="0.2" d="M10.0311 5.53125H5.48669V14.875H10.0311C10.2284 14.874 10.4173 14.7953 10.557 14.656C10.6967 14.5167 10.7758 14.3279 10.7773 14.1306V6.27562C10.7758 6.07834 10.6967 5.88958 10.557 5.75024C10.4173 5.61091 10.2284 5.53223 10.0311 5.53125Z" fill="black"/>
<path opacity="0.2" d="M9.62419 5.53125H5.48669V14.875H9.62419C9.82149 14.874 10.0104 14.7953 10.1501 14.656C10.2898 14.5167 10.369 14.3279 10.3704 14.1306V6.27562C10.369 6.07834 10.2898 5.88958 10.1501 5.75024C10.0104 5.61091 9.82149 5.53223 9.62419 5.53125Z" fill="black"/>
<path d="M2.16294 5.53125H9.62419C9.82183 5.53109 10.0115 5.6094 10.1514 5.74898C10.2913 5.88856 10.3701 6.07798 10.3704 6.27563V13.7244C10.3701 13.922 10.2913 14.1114 10.1514 14.251C10.0115 14.3906 9.82183 14.4689 9.62419 14.4688H2.16294C2.06505 14.4689 1.96809 14.4498 1.8776 14.4125C1.78711 14.3751 1.70486 14.3203 1.63556 14.2512C1.56625 14.1821 1.51125 14.1 1.4737 14.0096C1.43614 13.9192 1.41677 13.8223 1.41669 13.7244V6.27563C1.41677 6.17774 1.43614 6.08083 1.4737 5.99043C1.51125 5.90003 1.56625 5.81792 1.63556 5.74879C1.70486 5.67966 1.78711 5.62487 1.8776 5.58754C1.96809 5.55021 2.06505 5.53109 2.16294 5.53125Z" fill="url(#paint0_linear_1225_1146)"/>
<path d="M4.47918 11.2425C4.49356 11.3575 4.50356 11.4575 4.50793 11.5431H4.52543C4.53168 11.4619 4.54543 11.3638 4.56606 11.2494C4.58668 11.135 4.60481 11.0381 4.62168 10.9588L5.40606 7.57939H6.42106L7.23356 10.9081C7.28088 11.114 7.3147 11.3228 7.33481 11.5331H7.34856C7.36348 11.3284 7.39167 11.1249 7.43293 10.9238L8.08231 7.57501H9.00543L7.86543 12.4175H6.78606L6.01293 9.21376C5.99043 9.12126 5.96501 9.00085 5.93668 8.85251C5.90835 8.70418 5.89085 8.59585 5.88418 8.52751H5.87106C5.86231 8.60626 5.84481 8.72314 5.81856 8.87814C5.79231 9.03376 5.77168 9.14814 5.75606 9.22314L5.02918 12.4194H3.93168L2.78543 7.57939H3.72293L4.42981 10.9656C4.4509 11.057 4.46738 11.1495 4.47918 11.2425Z" fill="white"/>
<defs>
<linearGradient id="paint0_linear_1225_1146" x1="2.97544" y1="4.94625" x2="8.81169" y2="15.0538" gradientUnits="userSpaceOnUse">
<stop stop-color="#2368C4"/>
<stop offset="0.5" stop-color="#1A5DBE"/>
<stop offset="1" stop-color="#1146AC"/>
</linearGradient>
</defs>
</svg>
