<svg width="21" height="20" viewBox="0 0 21 20" fill="none" xmlns="http://www.w3.org/2000/svg">
<path d="M15.2292 1.29498L18.7067 4.91998V18.705H5.71606V18.75H18.7511V4.96561L15.2292 1.29498Z" fill="#909090"/>
<path d="M15.1861 1.25H5.67169V18.705H18.7067V4.92063L15.1861 1.25Z" fill="#F4F4F4"/>
<path d="M5.57606 2.1875H1.58231V6.45437H14.1448V2.1875H5.57606Z" fill="#7A7B7C"/>
<path d="M14.2117 6.38188H1.66356V2.11188H14.2117V6.38188Z" fill="#DD2025"/>
<path d="M5.82418 2.83374H5.00731V5.83374H5.64981V4.82187L5.79168 4.82999C5.92954 4.82762 6.0661 4.80293 6.19606 4.75687C6.31 4.71768 6.41482 4.65581 6.50418 4.57499C6.59512 4.49801 6.66682 4.40084 6.71356 4.29124C6.77624 4.10905 6.79863 3.91543 6.77918 3.72374C6.77528 3.58681 6.75127 3.4512 6.70793 3.32124C6.66848 3.22744 6.60993 3.14287 6.536 3.07293C6.46208 3.00298 6.37441 2.9492 6.27856 2.91499C6.19569 2.88499 6.11007 2.86322 6.02293 2.84999C5.95695 2.83981 5.89032 2.83438 5.82356 2.83374M5.70543 4.26749H5.64981V3.34249H5.77043C5.82367 3.33865 5.87709 3.34683 5.92675 3.36641C5.9764 3.38599 6.02102 3.41648 6.05731 3.45562C6.13251 3.55625 6.17268 3.67875 6.17168 3.80437C6.17168 3.95812 6.17168 4.09749 6.03293 4.19562C5.93298 4.2506 5.8192 4.27597 5.70543 4.26749ZM7.99981 2.82562C7.93043 2.82562 7.86293 2.83062 7.81543 2.83249L7.66668 2.83624H7.17918V5.83624H7.75293C7.9722 5.84225 8.19051 5.80509 8.39543 5.72687C8.56038 5.66144 8.70644 5.55598 8.82043 5.41999C8.93129 5.28278 9.01085 5.12302 9.05356 4.95187C9.10266 4.75804 9.12661 4.55869 9.12481 4.35874C9.13693 4.12259 9.11866 3.88586 9.07043 3.65437C9.02467 3.48397 8.93897 3.32693 8.82043 3.19624C8.72743 3.09072 8.61358 3.0056 8.48606 2.94624C8.37655 2.89557 8.26135 2.85822 8.14293 2.83499C8.09584 2.82721 8.04816 2.82366 8.00043 2.82437M7.88668 5.28499H7.82418V3.36999H7.83231C7.96116 3.35517 8.09153 3.37842 8.20731 3.43687C8.2921 3.50457 8.36119 3.58987 8.40981 3.68687C8.46228 3.78895 8.49253 3.901 8.49856 4.01562C8.50418 4.15312 8.49856 4.26562 8.49856 4.35874C8.5011 4.46602 8.4942 4.57331 8.47793 4.67937C8.45867 4.78826 8.42306 4.89362 8.37231 4.99187C8.31487 5.08322 8.23725 5.16019 8.14543 5.21687C8.06832 5.26674 7.97701 5.29001 7.88543 5.28312M11.0604 2.83624H9.54168V5.83624H10.1842V4.64624H10.9967V4.08874H10.1842V3.39374H11.0592V2.83624" fill="#464648"/>
<path d="M13.7798 12.6594C13.7798 12.6594 15.7723 12.2981 15.7723 12.9788C15.7723 13.6594 14.5379 13.3825 13.7798 12.6594ZM12.3067 12.7113C11.9901 12.7812 11.6816 12.8836 11.3861 13.0169L11.6361 12.4544C11.8861 11.8919 12.1454 11.125 12.1454 11.125C12.4438 11.6271 12.7909 12.0985 13.1817 12.5325C12.887 12.5765 12.5948 12.6365 12.3067 12.7125V12.7113ZM11.5179 8.64876C11.5179 8.05563 11.7098 7.89376 11.8592 7.89376C12.0086 7.89376 12.1767 7.96563 12.1823 8.48063C12.1337 8.99848 12.0252 9.50896 11.8592 10.0019C11.6318 9.58803 11.5141 9.12285 11.5173 8.65063L11.5179 8.64876ZM8.61232 15.2213C8.00107 14.8556 9.89419 13.73 10.2373 13.6938C10.2354 13.6944 9.25232 15.6038 8.61232 15.2213ZM16.3542 13.0594C16.3479 12.9969 16.2917 12.305 15.0604 12.3344C14.5472 12.3261 14.0343 12.3623 13.5273 12.4425C13.0362 11.9478 12.6133 11.3897 12.2698 10.7831C12.4862 10.1578 12.6172 9.50605 12.6592 8.84563C12.6411 8.09563 12.4617 7.66563 11.8867 7.67188C11.3117 7.67813 11.2279 8.18126 11.3036 8.93001C11.3776 9.43316 11.5174 9.92443 11.7192 10.3913C11.7192 10.3913 11.4536 11.2181 11.1023 12.0406C10.7511 12.8631 10.5111 13.2944 10.5111 13.2944C9.90027 13.4932 9.32528 13.7886 8.80794 14.1694C8.29294 14.6488 8.08357 15.0169 8.35482 15.385C8.58857 15.7025 9.40669 15.7744 10.1379 14.8163C10.5265 14.3214 10.8814 13.8011 11.2004 13.2588C11.2004 13.2588 12.3154 12.9531 12.6623 12.8694C13.0092 12.7856 13.4286 12.7194 13.4286 12.7194C13.4286 12.7194 14.4467 13.7438 15.4286 13.7075C16.4104 13.6713 16.3629 13.1206 16.3567 13.0606" fill="#DD2025"/>
<path d="M15.1379 1.2981V4.96872H18.6586L15.1379 1.2981Z" fill="#909090"/>
<path d="M15.1861 1.25V4.92063H18.7067L15.1861 1.25Z" fill="#F4F4F4"/>
<path d="M5.77606 2.78565H4.95918V5.78565H5.60418V4.7744L5.74668 4.78252C5.88454 4.78015 6.0211 4.75546 6.15106 4.7094C6.26499 4.67019 6.3698 4.60832 6.45918 4.52752C6.54944 4.45033 6.62048 4.35318 6.66668 4.24377C6.72937 4.06158 6.75176 3.86796 6.73231 3.67627C6.7284 3.53934 6.7044 3.40372 6.66106 3.27377C6.6216 3.17996 6.56305 3.0954 6.48913 3.02546C6.4152 2.95551 6.32753 2.90173 6.23168 2.86752C6.14843 2.83723 6.06239 2.81525 5.97481 2.8019C5.90882 2.79172 5.84219 2.78629 5.77543 2.78565M5.65731 4.2194H5.60168V3.2944H5.72293C5.77617 3.29056 5.82959 3.29873 5.87924 3.31831C5.9289 3.33789 5.97352 3.36838 6.00981 3.40752C6.08501 3.50816 6.12518 3.63065 6.12418 3.75627C6.12418 3.91002 6.12418 4.0494 5.98543 4.14752C5.88547 4.2025 5.7717 4.22725 5.65793 4.21877M7.95168 2.77752C7.88231 2.77752 7.81481 2.78252 7.76731 2.7844L7.62043 2.78815H7.13293V5.78815H7.70668C7.92595 5.79416 8.14426 5.75699 8.34918 5.67877C8.51413 5.61335 8.66019 5.50788 8.77418 5.3719C8.88503 5.23468 8.96459 5.07492 9.00731 4.90377C9.05641 4.70994 9.08036 4.51059 9.07856 4.31065C9.09068 4.0745 9.07241 3.83777 9.02418 3.60627C8.97842 3.43587 8.89272 3.27883 8.77418 3.14815C8.68118 3.04262 8.56733 2.9575 8.43981 2.89815C8.3303 2.84747 8.2151 2.81012 8.09668 2.7869C8.04959 2.77912 8.0019 2.77556 7.95418 2.77627M7.84043 5.2369H7.77793V3.3219H7.78606C7.91491 3.30707 8.04528 3.33032 8.16106 3.38877C8.24585 3.45648 8.31494 3.54177 8.36356 3.63877C8.41603 3.74086 8.44628 3.8529 8.45231 3.96752C8.45793 4.10502 8.45231 4.21752 8.45231 4.31065C8.45485 4.41792 8.44795 4.52521 8.43168 4.63127C8.41242 4.74017 8.37681 4.84552 8.32606 4.94377C8.26861 5.03512 8.191 5.11209 8.09918 5.16877C8.02207 5.21865 7.93076 5.24191 7.83918 5.23502M11.0123 2.78815H9.49356V5.78815H10.1361V4.59815H10.9486V4.04065H10.1361V3.34565H11.0111V2.78815" fill="white"/>
</svg>
