<svg width="19" height="20" viewBox="0 0 19 20" fill="none" xmlns="http://www.w3.org/2000/svg">
<path d="M6.3349 6.04165C6.3444 4.31977 6.42119 3.38719 7.02919 2.77919C7.72507 2.08331 8.84448 2.08331 11.0833 2.08331H11.875C14.1146 2.08331 15.234 2.08331 15.9299 2.77919C16.625 3.47427 16.625 4.59448 16.625 6.83331V13.1666C16.625 15.4055 16.625 16.5257 15.9299 17.2208C15.2332 17.9166 14.1146 17.9166 11.875 17.9166H11.0833C8.84448 17.9166 7.72507 17.9166 7.02919 17.2208C6.42119 16.6128 6.3444 15.6802 6.3349 13.9583" stroke="#E11D48" stroke-width="1.5" stroke-linecap="round"/>
<path d="M6.33333 15.9375C4.46737 15.9375 3.534 15.9375 2.9545 15.358C2.375 14.7777 2.375 13.8451 2.375 11.9792V8.02083C2.375 6.15487 2.375 5.2215 2.9545 4.642C3.534 4.0625 4.46737 4.0625 6.33333 4.0625" stroke="#E11D48" stroke-width="1.5"/>
<path d="M11.875 9.99996H4.75M4.75 9.99996L6.33333 11.5833M4.75 9.99996L6.33333 8.41663" stroke="#E11D48" stroke-width="1.5" stroke-linecap="round" stroke-linejoin="round"/>
</svg>
