<svg width="20" height="20" viewBox="0 0 20 20" fill="none" xmlns="http://www.w3.org/2000/svg">
<path fill-rule="evenodd" clip-rule="evenodd" d="M10 1.04169C8.95021 1.04169 7.94339 1.45872 7.20106 2.20106C6.45873 2.94339 6.04169 3.9502 6.04169 5.00002C6.04169 6.04984 6.45873 7.05665 7.20106 7.79898C7.94339 8.54132 8.95021 8.95835 10 8.95835C11.0498 8.95835 12.0567 8.54132 12.799 7.79898C13.5413 7.05665 13.9584 6.04984 13.9584 5.00002C13.9584 3.9502 13.5413 2.94339 12.799 2.20106C12.0567 1.45872 11.0498 1.04169 10 1.04169ZM7.29169 5.00002C7.29169 4.28173 7.57703 3.59285 8.08495 3.08494C8.59286 2.57703 9.28173 2.29169 10 2.29169C10.7183 2.29169 11.4072 2.57703 11.9151 3.08494C12.423 3.59285 12.7084 4.28173 12.7084 5.00002C12.7084 5.71831 12.423 6.40719 11.9151 6.9151C11.4072 7.42301 10.7183 7.70835 10 7.70835C9.28173 7.70835 8.59286 7.42301 8.08495 6.9151C7.57703 6.40719 7.29169 5.71831 7.29169 5.00002ZM10 10.2084C8.07253 10.2084 6.29586 10.6467 4.98003 11.3867C3.68336 12.1167 2.70836 13.2217 2.70836 14.5834V14.6684C2.70753 15.6367 2.70669 16.8517 3.77253 17.72C4.29669 18.1467 5.03086 18.4509 6.02253 18.6509C7.01586 18.8525 8.31169 18.9584 10 18.9584C11.6884 18.9584 12.9834 18.8525 13.9784 18.6509C14.97 18.4509 15.7034 18.1467 16.2284 17.72C17.2942 16.8517 17.2925 15.6367 17.2917 14.6684V14.5834C17.2917 13.2217 16.3167 12.1167 15.0209 11.3867C13.7042 10.6467 11.9284 10.2084 10 10.2084ZM3.95836 14.5834C3.95836 13.8742 4.47669 13.1042 5.59253 12.4767C6.68919 11.86 8.24586 11.4584 10.0009 11.4584C11.7542 11.4584 13.3109 11.86 14.4075 12.4767C15.5242 13.1042 16.0417 13.8742 16.0417 14.5834C16.0417 15.6734 16.0084 16.2867 15.4384 16.75C15.13 17.0017 14.6134 17.2475 13.73 17.4259C12.8492 17.6042 11.645 17.7084 10 17.7084C8.35503 17.7084 7.15003 17.6042 6.27003 17.4259C5.38669 17.2475 4.87003 17.0017 4.56169 16.7509C3.99169 16.2867 3.95836 15.6734 3.95836 14.5834Z" fill="#475569"/>
</svg>
