<svg width="31" height="31" viewBox="0 0 31 31" fill="none" xmlns="http://www.w3.org/2000/svg">
<path d="M27.125 27.125L21.5153 21.5153M21.5153 21.5153C22.4748 20.5558 23.236 19.4166 23.7553 18.1629C24.2746 16.9091 24.5419 15.5654 24.5419 14.2084C24.5419 12.8513 24.2746 11.5076 23.7553 10.2539C23.236 9.00013 22.4748 7.86096 21.5153 6.9014C20.5557 5.94183 19.4166 5.18067 18.1628 4.66135C16.9091 4.14204 15.5654 3.87476 14.2083 3.87476C12.8513 3.87476 11.5076 4.14204 10.2538 4.66135C9.0001 5.18067 7.86093 5.94183 6.90137 6.9014C4.96344 8.83932 3.87473 11.4677 3.87473 14.2084C3.87473 16.949 4.96344 19.5774 6.90137 21.5153C8.83929 23.4532 11.4677 24.542 14.2083 24.542C16.949 24.542 19.5774 23.4532 21.5153 21.5153Z" stroke="#4B5563" stroke-width="2.5" stroke-linecap="round" stroke-linejoin="round"/>
</svg>
