<svg width="20" height="20" viewBox="0 0 20 20" fill="none" xmlns="http://www.w3.org/2000/svg">
<path fill-rule="evenodd" clip-rule="evenodd" d="M10 6.875C9.1712 6.875 8.37634 7.20424 7.79029 7.79029C7.20424 8.37634 6.875 9.1712 6.875 10C6.875 10.8288 7.20424 11.6237 7.79029 12.2097C8.37634 12.7958 9.1712 13.125 10 13.125C10.8288 13.125 11.6237 12.7958 12.2097 12.2097C12.7958 11.6237 13.125 10.8288 13.125 10C13.125 9.1712 12.7958 8.37634 12.2097 7.79029C11.6237 7.20424 10.8288 6.875 10 6.875ZM8.125 10C8.125 9.50272 8.32254 9.02581 8.67417 8.67417C9.02581 8.32254 9.50272 8.125 10 8.125C10.4973 8.125 10.9742 8.32254 11.3258 8.67417C11.6775 9.02581 11.875 9.50272 11.875 10C11.875 10.4973 11.6775 10.9742 11.3258 11.3258C10.9742 11.6775 10.4973 11.875 10 11.875C9.50272 11.875 9.02581 11.6775 8.67417 11.3258C8.32254 10.9742 8.125 10.4973 8.125 10Z" fill="#475569"/>
<path fill-rule="evenodd" clip-rule="evenodd" d="M9.97918 1.04169C9.60835 1.04169 9.29918 1.04169 9.04585 1.05835C8.7869 1.06914 8.53152 1.12264 8.29002 1.21669C8.01189 1.33176 7.75916 1.5005 7.54626 1.71326C7.33335 1.92602 7.16444 2.17864 7.04918 2.45669C6.92835 2.74835 6.89585 3.05669 6.88252 3.39169C6.88118 3.5142 6.84875 3.63438 6.78826 3.74093C6.72777 3.84748 6.6412 3.93692 6.53668 4.00085C6.42908 4.05961 6.30832 4.09005 6.18573 4.08932C6.06314 4.08859 5.94274 4.05671 5.83585 3.99669C5.53918 3.84002 5.25585 3.71419 4.94252 3.67252C4.64414 3.63327 4.34095 3.65318 4.05026 3.73111C3.75958 3.80903 3.48709 3.94345 3.24835 4.12669C3.04649 4.28909 2.87278 4.48364 2.73418 4.70252C2.59252 4.91419 2.43752 5.18169 2.25252 5.50252L2.23168 5.53919C2.04585 5.86002 1.89168 6.12752 1.78002 6.35585C1.66335 6.59419 1.57168 6.82919 1.53835 7.08919C1.45885 7.69168 1.62192 8.30108 1.99168 8.78335C2.18418 9.03419 2.43502 9.21669 2.71835 9.39502C2.82398 9.45747 2.91199 9.54577 2.97409 9.65161C3.0362 9.75745 3.07035 9.87734 3.07335 10C3.07035 10.1227 3.0362 10.2426 2.97409 10.3484C2.91199 10.4543 2.82398 10.5426 2.71835 10.605C2.43502 10.7834 2.18502 10.9659 1.99168 11.2167C1.80845 11.4554 1.67403 11.7279 1.5961 12.0186C1.51818 12.3093 1.49827 12.6125 1.53752 12.9109C1.57168 13.1709 1.66252 13.4059 1.77918 13.6442C1.89168 13.8725 2.04585 14.14 2.23168 14.4609L2.25252 14.4975C2.43752 14.8184 2.59252 15.0859 2.73418 15.2975C2.88168 15.5167 3.04002 15.7142 3.24835 15.8725C3.48702 16.0559 3.75949 16.1905 4.05017 16.2685C4.34086 16.3466 4.64408 16.3667 4.94252 16.3275C5.25585 16.2859 5.53918 16.1609 5.83585 16.0034C5.94261 15.9434 6.06287 15.9116 6.18531 15.9108C6.30776 15.9101 6.42838 15.9405 6.53585 15.9992C6.64095 16.0626 6.72806 16.1519 6.78889 16.2585C6.84971 16.3652 6.88223 16.4856 6.88335 16.6084C6.89585 16.9434 6.92835 17.2517 7.05002 17.5434C7.16509 17.8215 7.33383 18.0742 7.54659 18.2871C7.75935 18.5 8.01197 18.6689 8.29002 18.7842C8.53168 18.8842 8.78168 18.9234 9.04585 18.9409C9.29918 18.9584 9.60835 18.9584 9.97918 18.9584H10.0208C10.3917 18.9584 10.7009 18.9584 10.9542 18.9417C11.2192 18.9234 11.4683 18.8842 11.71 18.7834C11.9881 18.6683 12.2409 18.4995 12.4538 18.2868C12.6667 18.074 12.8356 17.8214 12.9509 17.5434C13.0717 17.2517 13.1042 16.9434 13.1175 16.6084C13.1187 16.4857 13.1511 16.3654 13.2116 16.2586C13.2721 16.1519 13.3587 16.0624 13.4633 15.9984C13.571 15.9397 13.6918 15.9094 13.8144 15.9103C13.937 15.9112 14.0574 15.9432 14.1642 16.0034C14.4608 16.16 14.7442 16.2859 15.0575 16.3267C15.66 16.4062 16.2694 16.2431 16.7517 15.8734C16.96 15.7134 17.1183 15.5167 17.2658 15.2975C17.4075 15.0859 17.5625 14.8184 17.7475 14.4975L17.7684 14.4609C17.9542 14.14 18.1084 13.8725 18.22 13.6442C18.3367 13.4059 18.4283 13.17 18.4617 12.9109C18.5412 12.3084 18.3781 11.699 18.0084 11.2167C17.8159 10.9659 17.565 10.7834 17.2817 10.605C17.1761 10.5426 17.088 10.4543 17.0259 10.3484C16.9638 10.2426 16.9297 10.1227 16.9267 10C16.9267 9.76835 17.0534 9.53835 17.2817 9.39502C17.565 9.21669 17.815 9.03419 18.0084 8.78335C18.1916 8.54462 18.326 8.27213 18.4039 7.98144C18.4819 7.69075 18.5018 7.38757 18.4625 7.08919C18.4229 6.83311 18.3412 6.58534 18.2208 6.35585C18.0786 6.07898 17.9277 5.80662 17.7684 5.53919L17.7475 5.50252C17.5953 5.23093 17.4347 4.96413 17.2658 4.70252C17.1273 4.48387 16.9535 4.28959 16.7517 4.12752C16.513 3.94414 16.2405 3.80957 15.9499 3.7315C15.6592 3.65343 15.356 3.63339 15.0575 3.67252C14.7442 3.71419 14.4608 3.83919 14.1642 3.99669C14.0574 4.05657 13.9372 4.08836 13.8147 4.08909C13.6923 4.08982 13.5717 4.05946 13.4642 4.00085C13.3594 3.93712 13.2725 3.84777 13.2117 3.7412C13.1509 3.63464 13.1182 3.51436 13.1167 3.39169C13.1042 3.05669 13.0717 2.74835 12.95 2.45669C12.8349 2.17856 12.6662 1.92583 12.4534 1.71293C12.2407 1.50002 11.9881 1.33112 11.71 1.21585C11.4683 1.11585 11.2184 1.07669 10.9542 1.05919C10.7009 1.04169 10.3917 1.04169 10.0208 1.04169H9.97918ZM8.76835 2.37085C8.83252 2.34419 8.93002 2.32002 9.13085 2.30585C9.33668 2.29169 9.60335 2.29169 10 2.29169C10.3967 2.29169 10.6633 2.29169 10.8692 2.30585C11.07 2.32002 11.1675 2.34419 11.2317 2.37085C11.4875 2.47669 11.69 2.67919 11.7958 2.93502C11.8292 3.01502 11.8567 3.14085 11.8675 3.43835C11.8925 4.09835 12.2333 4.73419 12.8383 5.08335C13.4433 5.43335 14.1642 5.41002 14.7483 5.10169C15.0117 4.96252 15.1342 4.92335 15.2208 4.91252C15.4947 4.87634 15.7716 4.95038 15.9908 5.11835C16.0458 5.16085 16.1159 5.23335 16.2284 5.40002C16.3442 5.57169 16.4775 5.80252 16.6758 6.14585C16.8742 6.48919 17.0067 6.72085 17.0975 6.90585C17.1867 7.08669 17.2142 7.18335 17.2225 7.25252C17.2587 7.52632 17.1847 7.80329 17.0167 8.02252C16.9634 8.09169 16.8684 8.17835 16.6167 8.33669C16.0567 8.68835 15.6767 9.30169 15.6767 10C15.6767 10.6984 16.0567 11.3117 16.6167 11.6634C16.8684 11.8217 16.9634 11.9084 17.0167 11.9775C17.185 12.1967 17.2583 12.4734 17.2225 12.7475C17.2142 12.8167 17.1859 12.9142 17.0975 13.0942C17.0067 13.28 16.8742 13.5109 16.6758 13.8542C16.4775 14.1975 16.3434 14.4284 16.2284 14.6C16.1159 14.7667 16.0458 14.8392 15.9908 14.8817C15.7716 15.0497 15.4947 15.1237 15.2208 15.0875C15.1342 15.0767 15.0125 15.0375 14.7483 14.8984C14.165 14.59 13.4433 14.5667 12.8383 14.9159C12.2333 15.2659 11.8925 15.9017 11.8675 16.5617C11.8567 16.8592 11.8292 16.985 11.7958 17.065C11.7435 17.1915 11.6667 17.3065 11.5699 17.4033C11.4731 17.5001 11.3582 17.5768 11.2317 17.6292C11.1675 17.6559 11.07 17.68 10.8692 17.6942C10.6633 17.7084 10.3967 17.7084 10 17.7084C9.60335 17.7084 9.33668 17.7084 9.13085 17.6942C8.93002 17.68 8.83252 17.6559 8.76835 17.6292C8.64185 17.5768 8.52692 17.5001 8.43011 17.4033C8.33331 17.3065 8.25653 17.1915 8.20418 17.065C8.17085 16.985 8.14335 16.8592 8.13252 16.5617C8.10752 15.9017 7.76668 15.2659 7.16168 14.9167C6.55668 14.5667 5.83585 14.59 5.25168 14.8984C4.98835 15.0375 4.86585 15.0767 4.77918 15.0875C4.50538 15.1237 4.22841 15.0497 4.00918 14.8817C3.95418 14.8392 3.88418 14.7667 3.77168 14.6C3.61494 14.356 3.46571 14.1073 3.32418 13.8542C3.12585 13.5109 2.99335 13.2792 2.90252 13.0942C2.81335 12.9134 2.78585 12.8167 2.77752 12.7475C2.74134 12.4737 2.81537 12.1968 2.98335 11.9775C3.03668 11.9084 3.13168 11.8217 3.38335 11.6634C3.94335 11.3117 4.32335 10.6984 4.32335 10C4.32335 9.30169 3.94335 8.68835 3.38335 8.33669C3.13168 8.17835 3.03668 8.09169 2.98335 8.02252C2.81537 7.80329 2.74134 7.52632 2.77752 7.25252C2.78585 7.18335 2.81418 7.08585 2.90252 6.90585C2.99335 6.72002 3.12585 6.48919 3.32418 6.14585C3.52252 5.80252 3.65668 5.57169 3.77168 5.40002C3.88418 5.23335 3.95418 5.16085 4.00918 5.11835C4.22841 4.95038 4.50538 4.87634 4.77918 4.91252C4.86585 4.92335 4.98752 4.96252 5.25168 5.10169C5.83502 5.41002 6.55668 5.43335 7.16168 5.08335C7.76668 4.73419 8.10752 4.09835 8.13252 3.43835C8.14335 3.14085 8.17085 3.01502 8.20418 2.93502C8.31002 2.67919 8.51252 2.47669 8.76835 2.37085Z" fill="#475569"/>
</svg>
